<svg width="211" height="53" viewBox="0 0 211 53" fill="none" xmlns="http://www.w3.org/2000/svg">
<g clip-path="url(#clip0_16_386)">
<mask id="mask0_16_386" style="mask-type:luminance" maskUnits="userSpaceOnUse" x="0" y="0" width="211" height="53">
<path d="M210.989 0H0V52.757H210.989V0Z" fill="white"/>
</mask>
<g mask="url(#mask0_16_386)">
<path d="M20 46C16.0444 46 12.1776 44.827 8.8886 42.6294C5.59962 40.4318 3.03617 37.3082 1.52242 33.6537C0.00866568 29.9992 -0.387401 25.9778 0.384303 22.0982C1.15601 18.2186 3.06082 14.6549 5.85787 11.8579C8.65492 9.06082 12.2186 7.15601 16.0982 6.3843C19.9778 5.6126 23.9992 6.00867 27.6537 7.52242C31.3082 9.03617 34.4318 11.5996 36.6294 14.8886C38.827 18.1776 40 22.0444 40 26C39.9939 31.3025 37.8848 36.386 34.1354 40.1354C30.386 43.8848 25.3025 45.9939 20 46Z" fill="#B1C127"/>
<path d="M19.8852 18.184C18.1972 18.184 16.2162 17.174 14.1432 17.174C12.0702 17.174 11.0992 17.774 10.4342 19.607C9.74316 21.495 8.98516 29.271 11.4342 35.132C13.0422 38.973 16.9902 29.602 19.8882 29.602C22.7862 29.602 27.0392 38.986 28.6482 35.132C31.1072 29.217 30.0042 21.321 29.3262 19.432C28.6612 17.598 27.6382 17.172 25.5512 17.172C23.4642 17.172 21.5772 18.182 19.8882 18.182" fill="white"/>
<path d="M111.31 14.608V26.425C111.426 28.1842 111.269 29.9507 110.845 31.662C110.22 33.324 109.077 35.038 105.462 35.038H105.475C102.032 35.038 100.318 33.297 99.8259 30.944C99.5988 29.4491 99.5274 27.9346 99.6129 26.425V14.608H95.0269V29.218C95.0269 34.518 98.3499 38.918 105.475 38.918C112.6 38.918 115.923 34.399 115.923 29.218V14.608H111.31Z" fill="white"/>
<path d="M163.216 38.694H142.693V34.799L157.567 18.463H143.052V14.608H163.217V18.263L148.595 34.826H163.203V38.694H163.216Z" fill="white"/>
<path d="M76.8962 51.216V45.979H76.8692L75.2612 51.216H74.7692L73.1612 45.979H73.1342V51.216H72.5762V45.487H73.5602L75.0222 50.113H75.0352L76.4712 45.487H77.4712V51.216H76.8962Z" fill="white"/>
<path d="M80.3651 45.487V51.216H79.7271V45.487H80.3651Z" fill="white"/>
<path d="M84.2871 46.032V51.216H83.6491V46.032H81.9341V45.487H85.9881V46.032H84.2871Z" fill="white"/>
<path d="M90.1362 46.947C90.0664 46.6513 89.8953 46.3894 89.6525 46.2067C89.4097 46.024 89.1106 45.9321 88.8072 45.947C88.1422 45.947 87.7442 46.266 87.7302 46.838C87.7172 48.087 90.9472 47.782 90.9472 49.616C90.9472 50.453 90.4822 51.291 89.0202 51.291C88.5648 51.2959 88.12 51.1543 87.7512 50.8871C87.3825 50.6199 87.1094 50.2412 86.9722 49.807L87.5572 49.594C87.6473 49.9237 87.8425 50.215 88.1133 50.4236C88.384 50.6323 88.7154 50.7469 89.0572 50.75C89.8942 50.75 90.3202 50.311 90.3202 49.713C90.3202 48.251 87.1032 48.676 87.1032 46.882C87.1132 46.6705 87.1663 46.4633 87.2591 46.273C87.352 46.0828 87.4826 45.9134 87.6432 45.7753C87.8037 45.6373 87.9907 45.5334 88.1927 45.4701C88.3947 45.4068 88.6076 45.3853 88.8182 45.407C89.2464 45.3912 89.6671 45.5224 90.0106 45.7787C90.354 46.035 90.5994 46.401 90.7062 46.816L90.1362 46.947Z" fill="white"/>
<path d="M93.3123 45.487V49.528C93.3509 49.864 93.5117 50.1741 93.7642 50.3992C94.0166 50.6244 94.3431 50.7488 94.6813 50.7488C95.0196 50.7488 95.346 50.6244 95.5984 50.3992C95.8509 50.1741 96.0117 49.864 96.0503 49.528V45.487H96.6883V49.487C96.6363 49.9831 96.4024 50.4423 96.0318 50.7761C95.6612 51.1099 95.1801 51.2946 94.6813 51.2946C94.1825 51.2946 93.7014 51.1099 93.3308 50.7761C92.9602 50.4423 92.7263 49.9831 92.6743 49.487V45.487H93.3123Z" fill="white"/>
<path d="M99.5862 45.487V51.216H98.9482V45.487H99.5862Z" fill="white"/>
<path d="M108.346 49.501C108.298 49.9995 108.062 50.4612 107.688 50.7938C107.313 51.1264 106.827 51.3054 106.326 51.295C105.037 51.295 104.133 50.365 104.133 48.357C104.133 46.496 104.944 45.419 106.326 45.419C106.798 45.4073 107.257 45.5707 107.616 45.8776C107.974 46.1845 108.206 46.6131 108.267 47.081L107.667 47.254C107.454 46.443 107.095 45.954 106.245 45.954C105.421 45.954 104.77 46.712 104.77 48.36C104.77 50.008 105.421 50.766 106.378 50.766C107.255 50.766 107.601 50.101 107.778 49.397L108.346 49.501Z" fill="white"/>
<path d="M113.915 45.487V51.216H113.277V48.491H110.539V51.216H109.901V45.487H110.539V47.946H113.277V45.487H113.915Z" fill="white"/>
<path d="M119.471 45.487V46.032H116.671V47.946H118.665V48.491H116.667V50.684H119.631V51.229H116.042V45.5H119.471V45.487Z" fill="white"/>
<path d="M125.599 51.216V45.979H125.572L123.964 51.216H123.485L121.877 45.979H121.85V51.216H121.279V45.487H122.263L123.725 50.113H123.739L125.175 45.487H126.175V51.216H125.599Z" fill="white"/>
<path d="M129.055 45.487V51.216H128.417V45.487H129.055Z" fill="white"/>
<path d="M134.993 49.501C134.945 49.9995 134.709 50.4612 134.335 50.7938C133.96 51.1264 133.474 51.3054 132.973 51.295C131.684 51.295 130.78 50.365 130.78 48.357C130.78 46.496 131.591 45.419 132.973 45.419C133.445 45.4073 133.904 45.5707 134.263 45.8776C134.621 46.1845 134.853 46.6131 134.914 47.081L134.329 47.254C134.116 46.443 133.757 45.954 132.907 45.954C132.083 45.954 131.432 46.712 131.432 48.36C131.432 50.008 132.083 50.766 133.04 50.766C133.917 50.766 134.263 50.101 134.44 49.397L134.993 49.501Z" fill="white"/>
<path d="M135.901 51.216L137.656 45.487H138.6L140.355 51.216H139.69L139.145 49.422H137.085L136.54 51.216H135.901ZM137.27 48.89H139.011L138.187 45.939H138.094L137.27 48.89Z" fill="white"/>
<path d="M141.816 51.216V45.487H142.454V50.667H145.166V51.212L141.816 51.216Z" fill="white"/>
<path d="M149.313 46.947C149.244 46.6513 149.073 46.3893 148.83 46.2067C148.587 46.024 148.288 45.9321 147.984 45.947C147.319 45.947 146.921 46.266 146.907 46.838C146.894 48.087 150.124 47.782 150.124 49.616C150.124 50.453 149.659 51.291 148.197 51.291C147.742 51.2953 147.296 51.1529 146.928 50.8847C146.559 50.6166 146.287 50.237 146.15 49.802L146.735 49.589C146.826 49.9186 147.021 50.2098 147.292 50.4184C147.562 50.627 147.894 50.7417 148.235 50.745C149.072 50.745 149.498 50.306 149.498 49.708C149.498 48.246 146.281 48.671 146.281 46.877C146.292 46.6657 146.346 46.4587 146.439 46.2688C146.532 46.0789 146.663 45.91 146.824 45.7724C146.985 45.6348 147.172 45.5315 147.374 45.4686C147.576 45.4058 147.789 45.3848 147.999 45.407C148.427 45.3914 148.848 45.5227 149.191 45.779C149.534 46.0352 149.78 46.4011 149.886 46.816L149.313 46.947Z" fill="white"/>
<path d="M158.485 48.464V51.216H157.967V50.698H157.954C157.767 50.906 157.534 51.0682 157.274 51.1722C157.014 51.2763 156.733 51.3193 156.454 51.298C155.154 51.298 154.221 50.368 154.221 48.36C154.221 46.352 155.151 45.422 156.454 45.422C156.943 45.402 157.422 45.5612 157.801 45.8696C158.181 46.1781 158.434 46.6146 158.514 47.097L157.914 47.217C157.635 46.3 157.156 45.954 156.492 45.954C155.655 45.954 154.857 46.526 154.857 48.36C154.857 50.194 155.657 50.766 156.492 50.766C156.668 50.7871 156.846 50.7698 157.015 50.7153C157.183 50.6608 157.338 50.5704 157.468 50.4503C157.598 50.3302 157.701 50.1834 157.769 50.0198C157.837 49.8563 157.868 49.6799 157.861 49.503V49.024H156.572V48.479H158.486L158.485 48.464Z" fill="white"/>
<path d="M160.306 51.216V45.487H162.14C163.376 45.487 164.054 46.045 164.054 46.987C164.065 47.329 163.957 47.6643 163.749 47.9357C163.54 48.2072 163.244 48.3981 162.911 48.476L164.121 51.201H163.43L162.274 48.596H160.931V51.201H160.306V51.216ZM160.944 48.079H162.1C162.977 48.079 163.429 47.747 163.429 47.029C163.429 46.258 162.911 46.029 162.086 46.029H160.943L160.944 48.079Z" fill="white"/>
<path d="M167.842 45.407C169.251 45.407 170.075 46.444 170.075 48.345C170.075 50.246 169.238 51.283 167.842 51.283C166.446 51.283 165.609 50.247 165.609 48.347C165.609 46.447 166.446 45.407 167.842 45.407ZM167.842 50.751C168.852 50.751 169.45 49.98 169.45 48.345C169.45 46.71 168.85 45.939 167.842 45.939C166.834 45.939 166.234 46.71 166.234 48.345C166.234 49.98 166.832 50.747 167.842 50.747V50.751Z" fill="white"/>
<path d="M172.388 45.487V49.528C172.427 49.864 172.587 50.1741 172.84 50.3992C173.092 50.6244 173.419 50.7488 173.757 50.7488C174.095 50.7488 174.422 50.6244 174.674 50.3992C174.927 50.1741 175.087 49.864 175.126 49.528V45.487H175.764V49.487C175.712 49.9831 175.478 50.4423 175.107 50.7761C174.737 51.1099 174.256 51.2946 173.757 51.2946C173.258 51.2946 172.777 51.1099 172.406 50.7761C172.036 50.4423 171.802 49.9831 171.75 49.487V45.487H172.388Z" fill="white"/>
<path d="M177.812 51.216V45.487H179.806C180.031 45.4545 180.261 45.4725 180.479 45.5396C180.696 45.6068 180.896 45.7214 181.064 45.8753C181.232 46.0291 181.364 46.2183 181.45 46.4293C181.536 46.6402 181.574 46.8676 181.561 47.095C181.561 48.052 180.896 48.664 179.461 48.664H178.451V51.216H177.812ZM178.45 48.116H179.527C180.577 48.116 180.936 47.757 180.936 47.066C180.936 46.375 180.536 46.016 179.673 46.016H178.45V48.116Z" fill="white"/>
<path d="M171.272 34.746V28.846H185.372V25.175H171.272V18.543H186.492V14.608H166.766V38.694H186.837V34.746H171.272Z" fill="white"/>
<path d="M205.712 27.981C207.048 27.6227 208.218 26.8092 209.019 25.6808C209.82 24.5524 210.202 23.1799 210.099 21.8C210.059 17.839 207.866 14.622 202.416 14.622H190.466V18.331H199.837L201.618 18.344C204.276 18.344 205.513 19.554 205.513 21.813C205.513 24.072 204.413 25.189 200.821 25.189H199.837L190.466 25.202V38.708H195.052V28.845H201.352L205.898 38.695H210.989L205.712 27.981Z" fill="white"/>
<path d="M77.1758 14.608H72.5898V38.68H77.1758V14.608Z" fill="white"/>
<path d="M120.176 38.694V14.608H124.766V34.826H139.466V38.681L120.176 38.694Z" fill="white"/>
<path d="M83.8609 26.465L91.7969 14.608H86.8649L79.7539 25.388V27.518L88.2209 38.697H93.3119L83.8609 26.465Z" fill="white"/>
<path d="M56.28 0H55.748V52.757H56.28V0Z" fill="white"/>
</g>
</g>
<defs>
<clipPath id="clip0_16_386">
<rect width="210.99" height="52.757" fill="white"/>
</clipPath>
</defs>
</svg>
